<svg t="1652084362276" class="icon" viewBox="0 0 1024 1024" version="1.1" xmlns="http://www.w3.org/2000/svg" p-id="6580" width="200" height="200"><path d="M661.333333 170.666667a32 32 0 0 1 32 32l-0.042666 106.410666h128.042666a32 32 0 1 1 0 64h-64V512a245.376 245.376 0 0 1-212.437333 243.157333 11.733333 11.733333 0 0 1 0.170667 2.176v106.666667a32 32 0 1 1-64 0v-106.666667l0.170666-1.92a245.376 245.376 0 0 1-214.357333-233.301333L266.666667 512V373.077333h-64a32 32 0 1 1 0-64h127.957333L330.666667 202.666667a32 32 0 0 1 64 0l-0.042667 106.410666h234.666667l0.042666-106.410666A32 32 0 0 1 661.333333 170.666667z m32 202.666666h-362.666666V512a181.333333 181.333333 0 0 0 163.84 180.48l8.704 0.64 8.789333 0.213333a181.333333 181.333333 0 0 0 181.12-172.544L693.333333 512V373.333333z m-238.421333 48.938667l3.925333 0.298667a26.453333 26.453333 0 0 1 22.570667 26.197333l-0.042667 43.648h61.184v-43.605333a26.496 26.496 0 1 1 53.034667 0v142.506666a26.496 26.496 0 1 1-53.034667 0v-52.309333h-61.184v52.394667a26.453333 26.453333 0 1 1-52.949333 0v-142.634667a26.496 26.496 0 0 1 26.496-26.496z" fill="#8DCFFF" p-id="6581"></path></svg>
